<svg width="420" height="320" viewBox="0 0 420 320" fill="none" xmlns="http://www.w3.org/2000/svg">
  <ellipse cx="210" cy="160" rx="210" ry="160" fill="#F3F0FF"/>
  <g>
    <rect x="90" y="120" width="240" height="120" rx="24" fill="#E9E3FF"/>
    <rect x="110" y="140" width="200" height="80" rx="16" fill="#fff"/>
    <rect x="130" y="160" width="60" height="12" rx="6" fill="#D1C4E9"/>
    <rect x="130" y="180" width="100" height="10" rx="5" fill="#E1BEE7"/>
    <rect x="130" y="195" width="80" height="8" rx="4" fill="#B39DDB"/>
    <circle cx="270" cy="180" r="18" fill="#7C4DFF"/>
    <rect x="260" y="170" width="20" height="20" rx="10" fill="#fff"/>
    <rect x="265" y="175" width="10" height="10" rx="5" fill="#7C4DFF"/>
  </g>
  <g>
    <ellipse cx="320" cy="90" rx="18" ry="18" fill="#4F2FF7" fill-opacity="0.12"/>
    <ellipse cx="320" cy="90" rx="10" ry="10" fill="#4F2FF7" fill-opacity="0.18"/>
    <ellipse cx="320" cy="90" rx="4" ry="4" fill="#4F2FF7"/>
  </g>
  <g>
    <ellipse cx="70" cy="70" rx="14" ry="14" fill="#4F2FF7" fill-opacity="0.12"/>
    <ellipse cx="70" cy="70" rx="7" ry="7" fill="#4F2FF7" fill-opacity="0.18"/>
    <ellipse cx="70" cy="70" rx="3" ry="3" fill="#4F2FF7"/>
  </g>
</svg>
